<svg width="101" height="83" viewBox="0 0 101 83" fill="none" xmlns="http://www.w3.org/2000/svg">
<circle cx="37.8941" cy="41.2355" r="37.5649" fill="#F9F7F1"/>
<g clip-path="url(#clip0_0_161)">
<path d="M77.8045 38.673L98.1325 28.7707C98.4389 28.6235 98.7129 28.4168 98.9386 28.1626C99.1643 27.9085 99.3372 27.612 99.4472 27.2904C99.5572 26.9688 99.6022 26.6285 99.5794 26.2894C99.5566 25.9502 99.4666 25.619 99.3146 25.315L99.0146 24.7151C98.7191 24.124 98.2067 23.67 97.5844 23.4478C96.962 23.2256 96.2779 23.2523 95.6749 23.5225L75.7225 32.5871L77.8045 38.673Z" fill="#E2CEAA"/>
<path d="M77.1639 38.673C78.9329 38.673 80.367 37.2389 80.367 35.4699C80.367 33.7008 78.9329 32.2667 77.1639 32.2667C75.3948 32.2667 73.9608 33.7008 73.9608 35.4699C73.9608 37.2389 75.3948 38.673 77.1639 38.673Z" fill="#E2CEAA"/>
<path d="M73.5157 39.8995C77.7001 51.9296 69.1721 65.8278 54.4697 70.9421C39.7674 76.0563 24.4541 70.4499 20.2697 58.4202L73.5157 39.8995Z" fill="#E2CEAA" fill-opacity="0.7"/>
<path d="M32.9607 46.6864C35.299 45.5073 37.8828 44.3545 40.6482 43.272C41.8547 42.7997 43.0943 42.3419 44.3671 41.8987C59.0705 36.7844 72.1207 35.8893 73.5155 39.8993C74.9103 43.9093 64.1215 51.3061 49.4181 56.4204C34.7146 61.5347 21.6644 62.4298 20.2696 58.4203C19.7983 57.065 20.7181 55.3232 22.7107 53.4133" fill="#E2CEAA"/>
<path d="M45.1615 57.7988C39.8923 59.3796 34.9819 60.3758 30.9316 60.7553C23.3322 59.4036 21.343 49.9176 21.3254 47.0636C21.3239 46.8034 21.3738 46.5454 21.4724 46.3046C21.571 46.0638 21.7162 45.8448 21.8998 45.6604C22.0833 45.476 22.3016 45.3297 22.5419 45.2299C22.7822 45.1302 23.0399 45.079 23.3001 45.0792C23.8234 45.079 24.3251 44.8711 24.6951 44.5011C25.0651 44.1311 25.2731 43.6294 25.2733 43.1061V34.0445C25.2733 33.643 25.3523 33.2454 25.506 32.8745C25.6596 32.5035 25.8848 32.1665 26.1688 31.8826C26.4527 31.5987 26.7897 31.3735 27.1606 31.2198C27.5316 31.0662 27.9291 30.9871 28.3306 30.9871C28.7321 30.9871 29.1297 31.0662 29.5007 31.2198C29.8716 31.3735 30.2086 31.5987 30.4925 31.8826C30.7764 32.1665 31.0017 32.5035 31.1553 32.8745C31.3089 33.2454 31.388 33.643 31.388 34.0445C31.388 34.0957 31.388 34.147 31.3848 34.1982C31.0565 40.8992 31.2599 55.7504 45.1326 57.7316L45.1615 57.7988Z" fill="#B32D09"/>
<path d="M30.3983 23.298C31.8135 23.298 32.9608 22.1507 32.9608 20.7355C32.9608 19.3203 31.8135 18.173 30.3983 18.173C28.983 18.173 27.8358 19.3203 27.8358 20.7355C27.8358 22.1507 28.983 23.298 30.3983 23.298Z" fill="#B32D09"/>
<path d="M39.367 14.3292C40.7822 14.3292 41.9295 13.182 41.9295 11.7667C41.9295 10.3515 40.7822 9.20424 39.367 9.20424C37.9518 9.20424 36.8045 10.3515 36.8045 11.7667C36.8045 13.182 37.9518 14.3292 39.367 14.3292Z" fill="#B32D09"/>
<path d="M68.6596 44.0959C68.4946 45.5004 68.1743 47.0219 67.5545 47.6417L67.5673 47.7026C65.1778 49.3474 62.1765 51.0355 58.7347 52.6482C59.4826 52.022 62.8155 48.9614 63.5618 43.4665C63.6435 42.8502 63.9459 42.2844 64.413 41.8741C64.8802 41.4639 65.4802 41.237 66.1019 41.2355H66.1147C66.4763 41.2355 66.8339 41.3121 67.1638 41.4602C67.4937 41.6083 67.7886 41.8245 68.0289 42.0947C68.2693 42.3649 68.4498 42.6829 68.5585 43.0278C68.6672 43.3727 68.7016 43.7367 68.6596 44.0959Z" fill="#B32D09"/>
<path opacity="0.3" d="M25.2733 48.923C29.6992 45.7988 28.6233 34.9511 28.0653 30.9989C27.3033 31.0653 26.5939 31.4149 26.077 31.9787C25.5602 32.5425 25.2734 33.2796 25.2733 34.0444V43.1061C25.2731 43.6293 25.0651 44.1311 24.6951 44.5011C24.3251 44.8711 23.8234 45.079 23.3001 45.0792C23.0399 45.0789 22.7822 45.1301 22.5419 45.2299C22.3016 45.3296 22.0833 45.4759 21.8998 45.6604C21.7162 45.8448 21.571 46.0638 21.4724 46.3046C21.3738 46.5454 21.3239 46.8033 21.3254 47.0636C21.3337 48.4151 21.7847 51.2537 23.0637 54.0114C22.835 52.199 23.2854 50.3263 25.2733 48.923Z" fill="white"/>
<path opacity="0.3" d="M31.9252 18.6811C31.6487 18.4742 31.3332 18.3254 30.9976 18.2435C30.6621 18.1617 30.3135 18.1487 29.9728 18.2051C29.6321 18.2616 29.3063 18.3864 29.0151 18.572C28.7238 18.7576 28.4732 19.0003 28.2782 19.2853C28.0832 19.5704 27.9479 19.892 27.8804 20.2307C27.813 20.5694 27.8147 20.9182 27.8856 21.2562C27.9565 21.5942 28.095 21.9144 28.2929 22.1975C28.4908 22.4805 28.7439 22.7206 29.0369 22.9033C28.7379 20.517 30.5033 19.2816 31.9252 18.6811Z" fill="white"/>
<path opacity="0.3" d="M40.8939 9.71239C40.6174 9.50546 40.3019 9.35661 39.9664 9.2748C39.6309 9.19299 39.2822 9.17991 38.9415 9.23636C38.6008 9.29281 38.275 9.41761 37.9838 9.60325C37.6926 9.7889 37.4419 10.0315 37.247 10.3166C37.052 10.6016 36.9167 10.9232 36.8492 11.2619C36.7817 11.6006 36.7835 11.9495 36.8544 12.2875C36.9253 12.6255 37.0638 12.9457 37.2617 13.2287C37.4595 13.5118 37.7126 13.7519 38.0057 13.9346C37.7067 11.5483 39.4721 10.3128 40.8939 9.71239Z" fill="white"/>
<path opacity="0.3" d="M61.3118 49.6323C65.6072 47.9428 67.1429 43.7762 67.6482 41.7449C67.2059 41.4131 66.6676 41.2343 66.1147 41.2355H66.1019C65.4802 41.237 64.8802 41.4639 64.4131 41.8741C63.946 42.2844 63.6435 42.8502 63.5618 43.4665C63.2697 45.661 62.5018 47.7654 61.3118 49.6323Z" fill="white"/>
<path d="M99.1412 24.9681L99.0146 24.7149C98.7191 24.1239 98.2067 23.6698 97.5844 23.4476C96.962 23.2254 96.2779 23.2522 95.6749 23.5224L76.8823 32.0602C88.2725 31.0243 95.9209 27.0008 99.1412 24.9681Z" fill="#C2AD88"/>
<path opacity="0.3" d="M37.7709 59.6887C28.3688 61.653 21.2779 61.3167 20.2698 58.4203C24.4544 70.4501 39.7658 76.0562 54.4698 70.9421C57.6808 69.8326 60.7058 68.2442 63.4422 66.2308C46.4619 69.0681 39.9519 62.9075 37.7709 59.6887Z" fill="white"/>
<path d="M32.9842 72.3132C36.34 73.5255 39.8829 74.1381 43.451 74.1229C47.3472 74.1096 51.2137 73.4437 54.89 72.153C62.2798 69.5827 68.4157 64.7996 72.1672 58.685C75.9695 52.4881 76.878 45.6673 74.7257 39.4792C74.6839 39.3614 74.6358 39.2459 74.5815 39.1333C75.1216 39.5156 75.7399 39.7732 76.3917 39.8875C77.0435 40.0018 77.7125 39.9699 78.3505 39.7941L98.6875 29.9259C99.147 29.7051 99.558 29.395 99.8966 29.0138C100.235 28.6326 100.495 28.1879 100.66 27.7055C100.825 27.2231 100.892 26.7127 100.858 26.204C100.824 25.6953 100.689 25.1985 100.461 24.7424L100.161 24.1423C99.7178 23.2532 98.9476 22.5704 98.0118 22.2375C97.076 21.9045 96.0475 21.9475 95.1427 22.3572L75.9911 31.1018C75.0368 31.3665 74.1959 31.9374 73.5976 32.7265C72.9993 33.5157 72.6768 34.4795 72.6795 35.4699C72.6793 35.9783 72.766 36.483 72.9358 36.9622L72.5589 37.2135C67.5315 34.699 55.3384 36.7261 43.9462 40.6889C43.2769 40.9216 42.6095 41.1615 41.9443 41.4086C40.6853 36.7444 43.9433 33.3495 44.1206 33.1697L42.3054 31.3612C41.0639 32.7038 40.1352 34.3048 39.5861 36.0491C38.9378 38.0923 38.9199 40.2834 39.5347 42.3369C37.4847 43.1554 35.5148 44.0208 33.6507 44.92C32.6169 41.0824 32.5251 37.1227 32.6659 34.2613C32.6935 33.6838 32.6055 33.1066 32.4069 32.5636C32.2083 32.0205 31.9032 31.5227 31.5095 31.0992C31.1158 30.6758 30.6415 30.3353 30.1143 30.0978C29.5872 29.8602 29.0179 29.7304 28.4399 29.7159C27.8619 29.7015 27.2868 29.8027 26.7485 30.0136C26.2101 30.2245 25.7194 30.5409 25.305 30.9441C24.8906 31.3474 24.5611 31.8294 24.3356 32.3618C24.1101 32.8942 23.9933 33.4663 23.992 34.0445V43.1061C23.9916 43.2896 23.9185 43.4655 23.7887 43.5952C23.6588 43.7249 23.4829 43.7978 23.2993 43.798C22.8703 43.7978 22.4454 43.8825 22.0492 44.0472C21.653 44.2119 21.2932 44.4533 20.9907 44.7576C20.6881 45.0618 20.4487 45.4229 20.2862 45.82C20.1238 46.2172 20.0415 46.6425 20.044 47.0716C20.1008 49.1504 20.4713 51.2088 21.1428 53.1771C19.1824 55.2759 18.4812 57.1784 19.0592 58.8407C21.2119 65.0288 26.1572 69.8134 32.9842 72.3132ZM54.0482 69.7319C47.2156 72.1085 40.048 72.1708 33.8652 69.907C29.2969 68.2343 25.6812 65.4377 23.3589 61.8455C24.6986 62.1077 26.0619 62.2304 27.4269 62.2116C28.2118 62.2116 29.0499 62.1811 29.9413 62.12C34.3589 61.817 39.6755 60.763 45.255 59.1065C45.3671 59.1245 48.4223 58.1236 49.8396 57.6307C53.0726 56.5118 56.2455 55.2262 59.3456 53.7791L59.4109 53.7486C62.7628 52.1713 65.7624 50.4936 68.2288 48.8025C70.4355 47.2896 72.0977 45.8579 73.2154 44.5073C74.1794 54.7392 66.3631 65.4485 54.0482 69.7319ZM67.3872 43.9468C67.1171 46.2434 66.6674 46.7165 66.6485 46.7356L66.6733 46.7604C65.6126 47.4827 64.4493 48.2031 63.198 48.914C64.034 47.2591 64.5863 45.4756 64.8319 43.6378C64.8741 43.3275 65.0273 43.043 65.2631 42.8369C65.4989 42.6308 65.8014 42.5171 66.1146 42.5167C66.2954 42.5167 66.4743 42.5549 66.6393 42.6289C66.8043 42.703 66.9518 42.8111 67.0721 42.9462C67.1923 43.0813 67.2826 43.2404 67.3369 43.4129C67.3913 43.5854 67.4085 43.7674 67.3875 43.9471L67.3872 43.9468ZM96.1988 24.6913C96.5002 24.5555 96.8425 24.5417 97.1538 24.6528C97.4652 24.764 97.7214 24.9914 97.8686 25.2874L98.1687 25.8875C98.245 26.0401 98.29 26.2063 98.3012 26.3764C98.3124 26.5466 98.2895 26.7173 98.2339 26.8785C98.1783 27.0397 98.091 27.1882 97.9773 27.3152C97.8635 27.4423 97.7256 27.5453 97.5715 27.6184L81.646 35.3762C81.633 34.7426 81.4857 34.1191 81.2136 33.5468C80.9416 32.9745 80.5511 32.4665 80.068 32.0564L96.1988 24.6913ZM77.1639 33.548C77.5648 33.5475 77.9558 33.6726 78.2821 33.9056C78.6083 34.1387 78.8534 34.468 78.9829 34.8475C79.1124 35.2269 79.1199 35.6374 79.0043 36.0213C78.8886 36.4052 78.6557 36.7432 78.3382 36.988L77.6335 37.3315C77.4056 37.3917 77.1681 37.407 76.9344 37.3767L77.2345 37.1766C77.3763 37.0841 77.4984 36.9644 77.5936 36.8244C77.6889 36.6844 77.7555 36.5269 77.7895 36.3611C77.8235 36.1952 77.8243 36.0242 77.7919 35.8581C77.7594 35.6919 77.6944 35.5338 77.6004 35.3929C77.5065 35.252 77.3856 35.1311 77.2447 35.0373C77.1037 34.9434 76.9456 34.8784 76.7794 34.846C76.6132 34.8136 76.4422 34.8145 76.2764 34.8486C76.1105 34.8827 75.9531 34.9493 75.8131 35.0446L75.2449 35.4234C75.2573 34.9224 75.4648 34.446 75.8232 34.0957C76.1817 33.7454 76.6627 33.5489 77.1639 33.548ZM42.2265 47.1808L44.1951 45.5403C43.7298 44.9861 43.3119 44.3937 42.9459 43.7695C43.5572 43.5438 44.1727 43.3231 44.7877 43.109C51.7945 40.6719 58.6252 39.1257 64.0196 38.7558C66.5297 38.5838 68.6455 38.684 70.1375 39.0461C71.3517 39.3405 72.1212 39.7931 72.3046 40.3205C72.488 40.8479 72.1653 41.6802 71.3962 42.6646C70.9511 43.2202 70.4621 43.7393 69.9341 44.2169C70.0423 43.2106 69.7498 42.2021 69.1198 41.4099C68.4899 40.6176 67.5733 40.1053 66.5684 39.984C65.5636 39.8626 64.5513 40.1419 63.7509 40.7613C62.9504 41.3808 62.4262 42.2906 62.2916 43.2938C61.6408 48.0842 58.8089 50.8759 58.019 51.571C55.0743 52.9344 52.0631 54.149 48.9966 55.2104C47.6895 55.665 46.3914 56.0879 45.1022 56.4791C40.0402 55.5022 36.461 52.4432 34.4568 47.3746C36.3678 46.4425 38.403 45.5462 40.524 44.7C41.009 45.5806 41.5792 46.4115 42.2265 47.1808ZM22.8069 46.5652C22.8712 46.5 22.9479 46.4484 23.0325 46.4132C23.1171 46.3781 23.2078 46.3601 23.2993 46.3605C24.1624 46.3595 24.9898 46.0162 25.6 45.406C26.2103 44.7957 26.5535 43.9683 26.5545 43.1053V34.0445C26.5548 33.5731 26.7422 33.1211 27.0755 32.7877C27.4089 32.4544 27.8609 32.267 28.3323 32.2667C28.5733 32.2669 28.8117 32.316 29.0331 32.4111C29.2546 32.5062 29.4543 32.6454 29.6203 32.8202C29.7863 32.9949 29.915 33.2016 29.9986 33.4276C30.0823 33.6536 30.1191 33.8943 30.1068 34.135C29.9236 37.8575 30.114 43.3338 32.0618 48.2835C33.1837 51.1343 34.7705 53.4802 36.7779 55.2556C37.9211 56.2638 39.2078 57.0965 40.5957 57.7264C37.6654 58.4847 34.6863 59.0398 31.6795 59.3877L30.6092 59.1904C27.7475 58.7135 25.5742 56.9055 24.1495 53.8169C23.1983 51.6856 22.6742 49.3885 22.6068 47.0556C22.6059 46.9646 22.6232 46.8744 22.6575 46.7902C22.6919 46.706 22.7426 46.6295 22.8069 46.5652ZM21.4797 57.9989C21.3024 57.4894 21.5958 56.7123 22.2792 55.8004C23.0355 57.2373 24.0691 58.5101 25.3202 59.5452C24.7569 59.4926 24.1978 59.4017 23.6469 59.2729C22.4334 58.9785 21.664 58.5264 21.4801 57.9995V57.9987L21.4797 57.9989Z" fill="black"/>
<path d="M30.3983 16.8917C29.638 16.8917 28.8949 17.1172 28.2628 17.5395C27.6307 17.9619 27.138 18.5622 26.8471 19.2645C26.5562 19.9669 26.4801 20.7398 26.6284 21.4854C26.7767 22.231 27.1428 22.9159 27.6803 23.4534C28.2179 23.991 28.9028 24.3571 29.6484 24.5054C30.394 24.6537 31.1668 24.5776 31.8692 24.2867C32.5715 23.9957 33.1719 23.5031 33.5942 22.871C34.0166 22.2389 34.242 21.4957 34.242 20.7355C34.2409 19.7164 33.8355 18.7394 33.1149 18.0188C32.3943 17.2982 31.4173 16.8929 30.3983 16.8917ZM30.3983 22.0167C30.1448 22.0167 29.8971 21.9416 29.6864 21.8008C29.4757 21.66 29.3115 21.4599 29.2145 21.2258C29.1176 20.9917 29.0922 20.7341 29.1416 20.4855C29.1911 20.237 29.3131 20.0087 29.4923 19.8295C29.6715 19.6503 29.8998 19.5283 30.1483 19.4789C30.3968 19.4294 30.6545 19.4548 30.8886 19.5518C31.1227 19.6487 31.3228 19.813 31.4636 20.0237C31.6044 20.2344 31.6795 20.4821 31.6795 20.7355C31.6791 21.0752 31.544 21.4008 31.3038 21.641C31.0636 21.8812 30.7379 22.0164 30.3983 22.0167Z" fill="black"/>
<path d="M43.2108 11.7667C43.2108 11.0065 42.9853 10.2634 42.563 9.63127C42.1406 8.99917 41.5403 8.5065 40.8379 8.21558C40.1356 7.92465 39.3627 7.84854 38.6171 7.99685C37.8715 8.14516 37.1866 8.51124 36.6491 9.0488C36.1115 9.58636 35.7454 10.2712 35.5971 11.0169C35.4488 11.7625 35.5249 12.5353 35.8158 13.2377C36.1068 13.94 36.5994 14.5403 37.2315 14.9627C37.8636 15.3851 38.6068 15.6105 39.367 15.6105C40.3861 15.6093 41.3631 15.204 42.0837 14.4834C42.8043 13.7628 43.2096 12.7858 43.2108 11.7667ZM38.0858 11.7667C38.0858 11.5133 38.1609 11.2656 38.3017 11.0549C38.4425 10.8442 38.6426 10.68 38.8767 10.583C39.1108 10.486 39.3684 10.4607 39.617 10.5101C39.8655 10.5595 40.0938 10.6816 40.273 10.8608C40.4522 11.0399 40.5742 11.2682 40.6236 11.5168C40.6731 11.7653 40.6477 12.0229 40.5507 12.2571C40.4538 12.4912 40.2895 12.6913 40.0788 12.8321C39.8681 12.9728 39.6204 13.048 39.367 13.048C39.0273 13.0476 38.7016 12.9125 38.4614 12.6723C38.2212 12.4321 38.0861 12.1064 38.0858 11.7667Z" fill="black"/>
<path d="M35.5233 25.8605H38.0858V28.423H35.5233V25.8605Z" fill="black"/>
<path d="M34.242 37.3917H36.8045V39.9542H34.242V37.3917Z" fill="black"/>
<path d="M41.9295 48.923H44.492V51.4855H41.9295V48.923Z" fill="black"/>
<path d="M21.4295 24.5792H23.992V27.1417H21.4295V24.5792Z" fill="black"/>
<path d="M32.2501 58.9577L33.6715 56.8257C30.5402 54.7381 30.4019 52.8148 30.3983 52.7339C30.3994 52.7555 30.3983 52.7667 30.3983 52.7667H27.8358C27.8358 53.0992 27.9596 56.098 32.2501 58.9577Z" fill="black"/>
<path d="M44.8906 20.0451C45.4199 19.2444 46.0188 18.492 46.6804 17.7966L44.8673 15.9857C44.6951 16.1581 40.6483 20.255 40.6483 24.5792H43.2108C43.2108 23.2727 43.7916 21.7048 44.8906 20.0451Z" fill="black"/>
</g>
<defs>
<clipPath id="clip0_0_161">
<rect width="82" height="82" fill="white" transform="translate(18.867 0.235489)"/>
</clipPath>
</defs>
</svg>
