<svg width="90" height="83" viewBox="0 0 90 83" fill="none" xmlns="http://www.w3.org/2000/svg">
<circle cx="41.559" cy="41.2361" r="41.2298" fill="#F9F7F1"/>
<g clip-path="url(#clip0_0_141)">
<path d="M40.6172 67.1085C45.7031 65.7449 46.036 50.5038 41.3608 33.0665C36.6855 15.6291 28.7726 2.59883 23.6867 3.96244C18.6008 5.32604 18.2679 20.5672 22.9431 38.0045C27.6184 55.4418 35.5313 68.4721 40.6172 67.1085Z" fill="#FFF0E2"/>
<path d="M55.0478 17.4866V12.0392H46.8768V17.4866C44.4974 18.2798 42.4278 19.8015 40.9613 21.8361C39.4948 23.8708 38.7057 26.3153 38.7057 28.8235V50.1709H63.2189V28.8235C63.2189 26.3153 62.4298 23.8708 60.9633 21.8361C59.4968 19.8015 57.4272 18.2798 55.0478 17.4866Z" fill="#FFFEFC" fill-opacity="0.7"/>
<path d="M45.5149 6.59185H56.4097V12.0392H45.5149V6.59185Z" fill="#B32D09"/>
<path d="M78.3104 24.1894C77.2418 23.9609 76.1343 23.9888 75.0785 24.2708C74.0228 24.5529 73.0489 25.0809 72.2365 25.8119C71.8985 24.7726 71.319 23.8283 70.5457 23.0561C69.7723 22.284 68.827 21.7061 67.7873 21.3697C63.4283 20.2016 58.4744 24.5553 56.7224 31.0932C54.9704 37.6312 57.0838 43.8791 61.4428 45.047C62.5114 45.2755 63.619 45.2475 64.6747 44.9655C65.7304 44.6835 66.7043 44.1554 67.5167 43.4245C67.8547 44.4638 68.4341 45.4081 69.2075 46.1803C69.9809 46.9525 70.9262 47.5304 71.966 47.8668C76.3249 49.0348 81.2789 44.6811 83.0308 38.1432C84.7827 31.6054 82.6694 25.3581 78.3104 24.1894Z" fill="#B32D09"/>
<path d="M19.6277 37.9143C23.0354 37.9143 23.0354 41.546 26.443 41.546C29.8506 41.546 29.8507 37.9143 33.2583 37.9143C36.6629 37.9143 36.6629 41.546 40.0689 41.546C43.4712 41.546 43.4712 37.9143 46.8735 37.9143C50.2758 37.9143 50.2781 41.546 53.6819 41.546C57.0857 41.546 57.0853 37.9143 60.4886 37.9143C63.8918 37.9143 63.8918 41.546 67.2951 41.546C70.6984 41.546 70.6984 37.9143 74.1016 37.9143V80.1316H19.6277V37.9143Z" fill="#E2CEAA"/>
<path d="M87.7322 37.9143C84.3244 37.9143 84.3244 41.546 80.9168 41.546C77.5092 41.546 77.5092 37.9143 74.1016 37.9143V80.1316H87.7322V37.9143Z" fill="#E2CEAA" fill-opacity="0.7"/>
<path d="M25.3758 23.7194C25.5452 23.7771 25.7244 23.8008 25.903 23.7892C26.0816 23.7775 26.2561 23.7307 26.4166 23.6514C26.577 23.5721 26.7203 23.4619 26.838 23.3271C26.9558 23.1923 27.0457 23.0356 27.1028 22.8659L30.2486 13.5637C30.3597 13.2228 30.3318 12.8518 30.171 12.5313C30.0103 12.2108 29.7296 11.9667 29.39 11.8518C29.0503 11.737 28.6791 11.7607 28.3568 11.9179C28.0346 12.075 27.7873 12.3529 27.6686 12.6913L24.5228 21.9935C24.4072 22.3355 24.4321 22.7094 24.592 23.033C24.752 23.3567 25.0339 23.6035 25.3758 23.7194Z" fill="black"/>
<path d="M28.5477 35.5583C28.7171 35.616 28.8962 35.6396 29.0747 35.6278C29.2533 35.6161 29.4277 35.5692 29.5881 35.4899C29.7485 35.4106 29.8916 35.3004 30.0093 35.1656C30.127 35.0309 30.217 34.8742 30.274 34.7046L33.4217 25.4024C33.4813 25.2324 33.5066 25.0523 33.4962 24.8725C33.4857 24.6926 33.4396 24.5167 33.3607 24.3548C33.2817 24.1929 33.1714 24.0483 33.0362 23.9293C32.901 23.8103 32.7435 23.7193 32.5728 23.6616C32.4022 23.6039 32.2218 23.5807 32.0421 23.5931C31.8625 23.6056 31.687 23.6537 31.526 23.7344C31.365 23.8152 31.2216 23.9271 31.1042 24.0636C30.9867 24.2002 30.8975 24.3587 30.8417 24.53L27.6938 33.832C27.5781 34.1742 27.6031 34.5483 27.7632 34.872C27.9234 35.1958 28.2055 35.4426 28.5477 35.5583Z" fill="black"/>
<path d="M87.7321 36.5525C86.5739 36.5362 85.446 36.9237 84.5423 37.6484C86.1141 30.6009 83.6275 24.2041 78.6633 22.8742C77.2844 22.5193 75.8314 22.5782 74.4857 23.0436C74.7902 22.2957 75.2669 21.6302 75.8771 21.1014C76.393 20.7106 76.9865 20.4349 77.6178 20.2926C78.2491 20.1504 78.9035 20.145 79.5371 20.2768C79.7158 20.3042 79.8982 20.2958 80.0736 20.2521C80.249 20.2083 80.4139 20.13 80.5588 20.0219C80.7036 19.9137 80.8255 19.7777 80.9172 19.622C81.009 19.4662 81.0688 19.2937 81.0932 19.1146C81.1177 18.9355 81.1062 18.7533 81.0594 18.5786C81.0127 18.404 80.9316 18.2404 80.821 18.0974C80.7104 17.9544 80.5724 17.8349 80.4151 17.7458C80.2578 17.6567 80.0843 17.5998 79.9048 17.5784C78.9002 17.3919 77.8674 17.4217 76.8753 17.666C75.8832 17.9102 74.9546 18.3632 74.1514 18.9947C73.0802 19.9143 72.2678 21.0977 71.7945 22.4277C70.8469 21.2825 69.5718 20.4545 68.1402 20.0548C67.1091 19.8021 66.0372 19.7624 64.9902 19.938C63.9432 20.1136 62.943 20.5009 62.0507 21.0762C60.6274 19.0715 58.6742 17.5025 56.4097 16.545V13.4011C56.7709 13.4011 57.1173 13.2576 57.3727 13.0022C57.628 12.7468 57.7715 12.4004 57.7715 12.0392V6.59185C57.7715 6.23067 57.628 5.88428 57.3727 5.62888C57.1173 5.37348 56.7709 5.23 56.4097 5.23H45.5149C45.1537 5.23 44.8073 5.37348 44.5519 5.62888C44.2965 5.88428 44.1531 6.23067 44.1531 6.59185V12.0392C44.1531 12.4004 44.2965 12.7468 44.5519 13.0022C44.8073 13.2576 45.1537 13.4011 45.5149 13.4011V16.5437C42.8758 17.6556 40.6677 19.5923 39.2214 22.0641C35.1649 11.5288 29.0042 1.12771 23.3317 2.65067C20.1904 3.49174 18.4468 7.73689 18.2886 14.9272C18.3198 22.3129 19.3069 29.6636 21.2253 36.796C20.7088 36.6318 20.1698 36.5496 19.6278 36.5525C19.2667 36.5525 18.9203 36.696 18.6649 36.9514C18.4095 37.2067 18.266 37.5531 18.266 37.9143V80.1316C18.266 80.4928 18.4095 80.8391 18.6649 81.0945C18.9203 81.3499 19.2667 81.4934 19.6278 81.4934H87.7321C88.0933 81.4934 88.4397 81.3499 88.6951 81.0945C88.9505 80.8391 89.094 80.4928 89.094 80.1316V37.9143C89.094 37.5531 88.9505 37.2067 88.6951 36.9514C88.4397 36.696 88.0933 36.5525 87.7321 36.5525ZM67.4348 22.6847C68.2674 22.97 69.0211 23.4471 69.6352 24.0776C70.2493 24.7081 70.7064 25.4742 70.9697 26.314C71.048 26.5115 71.1715 26.6879 71.3301 26.8292C71.4888 26.9705 71.6783 27.0727 71.8836 27.1276C72.0888 27.1825 72.304 27.1887 72.5121 27.1456C72.7201 27.1024 72.9152 27.0113 73.0817 26.8793C73.7301 26.2842 74.5093 25.8498 75.3563 25.6111C76.2034 25.3723 77.0947 25.3359 77.9584 25.5048C81.5227 26.4597 83.2436 32.0859 81.7155 37.79C81.4905 38.6062 81.2034 39.404 80.8567 40.1763C79.8382 40.1567 79.3383 39.6892 78.5025 38.798C77.999 38.1026 77.3378 37.5365 76.5732 37.1461C75.8086 36.7557 74.9623 36.5521 74.1037 36.5521C73.2452 36.5521 72.3989 36.7557 71.6343 37.1461C70.8696 37.5365 70.2085 38.1026 69.705 38.798C68.8511 39.7084 68.3577 40.1832 67.2945 40.1832C66.2313 40.1832 65.7385 39.7084 64.884 38.798C64.3674 38.1173 63.7039 37.5618 62.9429 37.173C62.1818 36.7842 61.3429 36.5721 60.4885 36.5525C59.456 36.5377 58.445 36.8473 57.5977 37.4377C57.3525 35.4307 57.5018 33.3952 58.0375 31.4456C59.5656 25.7435 63.8493 21.7251 67.4348 22.6847ZM46.8768 7.9537H55.0478V10.6774H46.8768V7.9537ZM47.3076 18.7786C47.5788 18.6882 47.8146 18.5147 47.9816 18.2829C48.1487 18.051 48.2386 17.7724 48.2386 17.4866V13.4011H53.686V17.4866C53.686 17.7724 53.7759 18.051 53.9429 18.2829C54.11 18.5147 54.3458 18.6882 54.6169 18.7786C56.7565 19.497 58.608 20.8851 59.8975 22.7375C57.7128 24.9566 56.1623 27.7203 55.4069 30.7413C54.5913 33.6352 54.5334 36.6902 55.2386 39.613C54.8099 39.9921 54.2542 40.1959 53.682 40.1838C52.6198 40.1838 52.1246 39.7091 51.2716 38.798C50.7685 38.1026 50.1076 37.5365 49.3432 37.1462C48.5788 36.7558 47.7327 36.5523 46.8744 36.5525C46.0161 36.5526 45.1701 36.7563 44.4059 37.1469C43.6416 37.5375 42.9809 38.1039 42.478 38.7994C41.6256 39.7091 41.1308 40.1838 40.0696 40.1838H40.0675V28.8236C40.0655 26.6008 40.764 24.4339 42.0637 22.6307C43.3634 20.8275 45.1983 19.4796 47.3076 18.7786ZM24.0365 5.28121C26.9121 4.51681 32.9372 12.1604 37.7115 25.867C37.4784 26.8356 37.355 27.8274 37.3438 28.8236V38.469C36.8423 37.8727 36.2172 37.3925 35.5117 37.0616C34.8063 36.7307 34.0374 36.557 33.2583 36.5525C32.4032 36.5721 31.5635 36.7842 30.8016 37.173C30.0398 37.5617 29.3753 38.1172 28.8576 38.798C28.0037 39.7084 27.5076 40.1838 26.4424 40.1838C26.1354 40.1899 25.8302 40.1352 25.5445 40.0226C25.2588 39.9101 24.9982 39.7421 24.7778 39.5282C24.5989 38.907 24.4213 38.2846 24.2506 37.6516C22.1516 30.2781 21.0622 22.654 21.0123 14.9876C21.1573 8.38949 22.6694 5.64755 24.0365 5.28121ZM20.9897 39.6778C21.3734 39.9686 21.726 40.2985 22.0417 40.662C22.5594 41.3428 23.2239 41.8983 23.9857 42.287C24.7476 42.6758 25.5873 42.8879 26.4424 42.9075C27.2977 42.8881 28.1377 42.6761 28.8998 42.2873C29.6619 41.8986 30.3266 41.343 30.8444 40.662C31.6983 39.7509 32.1944 39.2762 33.2583 39.2762C34.3222 39.2762 34.8157 39.7509 35.6688 40.6613C36.1719 41.3568 36.8328 41.923 37.5972 42.3134C38.3616 42.7039 39.2078 42.9075 40.0662 42.9075C40.9245 42.9075 41.7707 42.7039 42.5351 42.3134C43.2995 41.923 43.9604 41.3568 44.4636 40.6613C45.3174 39.7509 45.8108 39.2762 46.874 39.2762C47.9372 39.2762 48.4301 39.7509 49.2845 40.6613C49.7876 41.3568 50.4485 41.923 51.213 42.3134C51.9774 42.7039 52.8235 42.9075 53.6819 42.9075C54.5403 42.9075 55.3864 42.7039 56.1508 42.3134C56.9153 41.923 57.5762 41.3568 58.0793 40.6613C58.933 39.7509 59.4264 39.2762 60.4898 39.2762C61.5531 39.2762 62.0458 39.7509 62.9002 40.6613C63.4032 41.3568 64.064 41.923 64.8284 42.3134C65.5927 42.7039 66.4387 42.9075 67.297 42.9075C68.1553 42.9075 69.0014 42.7039 69.7657 42.3134C70.53 41.923 71.1908 41.3568 71.6938 40.6613C72.0088 40.3023 72.3602 39.977 72.7424 39.6906V78.7697H20.9923L20.9897 39.6778ZM86.3703 78.7697H75.4635V39.6888C75.8472 39.9756 76.1998 40.3018 76.5156 40.662C77.0197 41.3573 77.6813 41.9234 78.4464 42.3137C79.2114 42.704 80.0581 42.9075 80.9169 42.9075C81.7758 42.9075 82.6224 42.704 83.3875 42.3137C84.1525 41.9234 84.8142 41.3573 85.3183 40.662C85.6341 40.2985 85.9866 39.9687 86.3703 39.6778V78.7697Z" fill="black"/>
</g>
<defs>
<clipPath id="clip0_0_141">
<rect width="74.6161" height="80" fill="white" transform="translate(14.4779 1.49341)"/>
</clipPath>
</defs>
</svg>
