<svg width="83" height="82" viewBox="0 0 83 82" fill="none" xmlns="http://www.w3.org/2000/svg">
<circle cx="46.1083" cy="36.8562" r="36.8499" fill="#F9F7F1"/>
<g clip-path="url(#clip0_0_81)">
<mask id="mask0_0_81" style="mask-type:luminance" maskUnits="userSpaceOnUse" x="0" y="1" width="81" height="81">
<path d="M-6.48499e-05 1.56726H80.3998V81.9671H-6.48499e-05V1.56726Z" fill="white"/>
</mask>
<g mask="url(#mask0_0_81)">
<path fill-rule="evenodd" clip-rule="evenodd" d="M9.84382 56.5771L25.3891 72.1223C25.9998 72.7332 26.9991 72.7332 27.6098 72.1223L35.3825 64.3498C36.6039 63.1284 36.6039 61.1297 35.3825 59.9083L22.058 46.5836C20.8366 45.3624 18.8379 45.3624 17.6165 46.5836L9.84382 54.3563C9.23313 54.9672 9.23313 55.9664 9.84382 56.5771Z" fill="#E2CEAA"/>
<path fill-rule="evenodd" clip-rule="evenodd" d="M22.058 46.5837L35.3826 59.9084C36.6039 61.1298 38.6026 61.1298 39.824 59.9084C41.0456 58.6869 41.0456 56.6884 39.824 55.4668L26.4995 42.1424C25.2779 40.9209 23.2794 40.9209 22.058 42.1424C20.8366 43.3637 20.8366 45.3625 22.058 46.5837Z" fill="#B32D09"/>
<path fill-rule="evenodd" clip-rule="evenodd" d="M26.4995 42.1424L39.824 55.467C54.2573 55.467 49.5332 45.7578 63.364 31.927L50.0395 18.6024C36.2085 32.4334 26.4995 27.7093 26.4995 42.1424Z" fill="#E2CEAA"/>
<path fill-rule="evenodd" clip-rule="evenodd" d="M50.0395 18.6025L63.3641 31.9272C64.5855 33.1485 66.584 33.1485 67.8055 31.9272C69.0269 30.7057 69.0269 28.7072 67.8055 27.4856L64.4744 24.1545L57.8119 17.4922L54.481 14.1611C53.2596 12.9395 51.2609 12.9395 50.0395 14.1611C48.8182 15.3825 48.8182 17.3812 50.0395 18.6025Z" fill="#B32D09"/>
<path fill-rule="evenodd" clip-rule="evenodd" d="M57.8119 17.492L64.4744 24.1543C67.5279 27.2079 72.5245 27.2079 75.5783 24.1543C78.6317 21.1007 78.6317 16.104 75.5783 13.0505L74.7454 12.2178L69.7486 7.22103L68.9157 6.38814C65.8624 3.33483 60.8656 3.33483 57.8121 6.38829C54.7586 9.44176 54.7586 14.4385 57.8119 17.492Z" fill="#E2CEAA"/>
<path fill-rule="evenodd" clip-rule="evenodd" d="M69.7486 7.22094L74.7453 12.2177L77.799 9.1642C79.1731 7.79002 79.173 5.54165 77.799 4.16748C76.4249 2.79346 74.1763 2.79346 72.8021 4.16748L69.7486 7.22094Z" fill="#E2CEAA"/>
<path d="M22.058 46.5837L35.3825 59.9084C36.6039 61.1298 36.6039 63.1284 35.3825 64.3499L27.6098 72.1225C26.9991 72.7332 25.9998 72.7332 25.3891 72.1225L9.84382 56.5772C9.23313 55.9665 9.23313 54.9673 9.84382 54.3565L17.6165 46.5837C18.8379 45.3625 20.8366 45.3625 22.058 46.5837Z" stroke="#252525" stroke-width="2.61972" stroke-miterlimit="2.613" stroke-linecap="round" stroke-linejoin="round"/>
<path d="M22.058 46.5837C20.8366 45.3625 20.8366 43.3637 22.058 42.1424C23.2794 40.9209 25.2779 40.9209 26.4995 42.1424L39.824 55.4668C41.0456 56.6884 41.0456 58.6869 39.824 59.9084C38.6026 61.1298 36.6039 61.1298 35.3826 59.9084" stroke="#252525" stroke-width="2.61972" stroke-miterlimit="2.613" stroke-linecap="round" stroke-linejoin="round"/>
<path d="M57.8121 17.4919C54.7586 14.4384 54.7586 9.44171 57.8121 6.38824C60.8655 3.33478 65.8624 3.33478 68.9157 6.38809L75.5782 13.0506C78.6317 16.1039 78.6317 21.1006 75.5782 24.1543C72.5246 27.2079 67.5279 27.2077 64.4744 24.1543" stroke="#252525" stroke-width="2.61972" stroke-miterlimit="2.613" stroke-linecap="round" stroke-linejoin="round"/>
<path d="M51.7053 20.2681L50.0395 18.6024C48.818 17.3808 48.818 15.3823 50.0395 14.1607C51.2609 12.9394 53.2595 12.9394 54.481 14.1607L67.8054 27.4854C69.0269 28.7068 69.0269 30.7055 67.8054 31.9269C66.584 33.1481 64.5853 33.1481 63.3639 31.9269L61.6981 30.261" stroke="#252525" stroke-width="2.61972" stroke-miterlimit="2.613" stroke-linecap="round" stroke-linejoin="round"/>
<path d="M50.0395 18.6024C36.2086 32.4333 26.4995 27.7092 26.4995 42.1424" stroke="#252525" stroke-width="2.61972" stroke-miterlimit="2.613" stroke-linecap="round" stroke-linejoin="round"/>
<path d="M63.364 31.927C49.5332 45.7578 54.2573 55.4669 39.824 55.4669" stroke="#252525" stroke-width="2.61972" stroke-miterlimit="2.613" stroke-linecap="round" stroke-linejoin="round"/>
<path d="M69.9694 7.00022L72.8021 4.16754C74.1763 2.79352 76.4248 2.79352 77.7988 4.16754C79.1729 5.54172 79.1729 7.79009 77.7988 9.16427L74.9662 11.9969" fill="#B32D09"/>
<path d="M69.9694 7.00022L72.8021 4.16754C74.1763 2.79352 76.4248 2.79352 77.7988 4.16754C79.1729 5.54172 79.1729 7.79009 77.7988 9.16427L74.9662 11.9969" stroke="#252525" stroke-width="2.61972" stroke-miterlimit="2.613" stroke-linecap="round" stroke-linejoin="round"/>
<path d="M1.57006 80.3963H1.57198" stroke="#252525" stroke-width="2.61972" stroke-miterlimit="22.926" stroke-linecap="round" stroke-linejoin="round"/>
<path d="M10.9922 80.3963H10.9941" stroke="#252525" stroke-width="2.61972" stroke-miterlimit="22.926" stroke-linecap="round" stroke-linejoin="round"/>
<path d="M1.57003 70.9742H1.57195" stroke="#252525" stroke-width="2.61972" stroke-miterlimit="22.926" stroke-linecap="round" stroke-linejoin="round"/>
<path d="M10.9922 70.9742H10.9941" stroke="#252525" stroke-width="2.61972" stroke-miterlimit="22.926" stroke-linecap="round" stroke-linejoin="round"/>
<path d="M56.7006 25.2647H56.7017" stroke="#252525" stroke-width="2.61972" stroke-miterlimit="2.613" stroke-linecap="round" stroke-linejoin="round"/>
</g>
</g>
<defs>
<clipPath id="clip0_0_81">
<rect width="80.4391" height="80.4391" fill="white" transform="translate(-3.8147e-05 1.5673)"/>
</clipPath>
</defs>
</svg>
